<?xml version="1.0" standalone="no"?><!DOCTYPE svg PUBLIC "-//W3C//DTD SVG 1.1//EN" "http://www.w3.org/Graphics/SVG/1.1/DTD/svg11.dtd"><svg t="1545482765254" class="icon" style="" viewBox="0 0 1024 1024" version="1.1" xmlns="http://www.w3.org/2000/svg" p-id="37165" xmlns:xlink="http://www.w3.org/1999/xlink" width="16" height="16"><defs><style type="text/css"></style></defs><path d="M602.8 512L829 285.8c25-25 25-65.5 0-90.5s-65.5-25-90.5 0L512.3 421.5 286.2 195.3c-25-25-65.5-25-90.5 0s-25 65.5 0 90.5L421.9 512 195.7 738.1c-25 25-25 65.5 0 90.5 25 25.1 65.5 25.1 90.4 0l226.2-226.1 226.1 226.1c25 25 65.5 25 90.5 0 25.1-25 25.1-65.4 0-90.4L602.8 512z" p-id="37166" fill="#ffffff"></path></svg>