<?xml version="1.0" standalone="no"?><!DOCTYPE svg PUBLIC "-//W3C//DTD SVG 1.1//EN" "http://www.w3.org/Graphics/SVG/1.1/DTD/svg11.dtd"><svg t="1546236787184" class="icon" style="" viewBox="0 0 1024 1024" version="1.1" xmlns="http://www.w3.org/2000/svg" p-id="2887" xmlns:xlink="http://www.w3.org/1999/xlink" width="16" height="16"><defs><style type="text/css"></style></defs><path d="M665.6 375.466667V324.266667H580.266667c-10.24 0-17.066667-6.826667-17.066667-17.066667V256h-102.4V307.2c0 10.24-6.826667 17.066667-17.066667 17.066667h-85.333333V375.466667c0 10.24-6.826667 17.066667-17.066667 17.066666H221.866667v307.2h68.266666V614.4c0-10.24 6.826667-17.066667 17.066667-17.066667s17.066667 6.826667 17.066667 17.066667v85.333333h68.266666V614.4c0-10.24 6.826667-17.066667 17.066667-17.066667s17.066667 6.826667 17.066667 17.066667v85.333333h68.266666V614.4c0-10.24 6.826667-17.066667 17.066667-17.066667s17.066667 6.826667 17.066667 17.066667v85.333333h68.266666V614.4c0-10.24 6.826667-17.066667 17.066667-17.066667s17.066667 6.826667 17.066667 17.066667v85.333333h68.266666V614.4c0-10.24 6.826667-17.066667 17.066667-17.066667s17.066667 6.826667 17.066667 17.066667v85.333333h68.266666v-307.2H682.666667c-10.24 0-17.066667-6.826667-17.066667-17.066666z" fill="#515151" p-id="2888"></path><path d="M921.6 17.066667H102.4C54.613333 17.066667 17.066667 54.613333 17.066667 102.4v819.2c0 47.786667 37.546667 85.333333 85.333333 85.333333h819.2c47.786667 0 85.333333-37.546667 85.333333-85.333333V102.4c0-47.786667-37.546667-85.333333-85.333333-85.333333z m-819.2 921.6c-10.24 0-17.066667-6.826667-17.066667-17.066667s6.826667-17.066667 17.066667-17.066667 17.066667 6.826667 17.066667 17.066667-6.826667 17.066667-17.066667 17.066667z m0-819.2c-10.24 0-17.066667-6.826667-17.066667-17.066667s6.826667-17.066667 17.066667-17.066667 17.066667 6.826667 17.066667 17.066667-6.826667 17.066667-17.066667 17.066667zM836.266667 716.8c0 10.24-6.826667 17.066667-17.066667 17.066667H204.8c-10.24 0-17.066667-6.826667-17.066667-17.066667V375.466667c0-10.24 6.826667-17.066667 17.066667-17.066667h119.466667V307.2c0-10.24 6.826667-17.066667 17.066666-17.066667h85.333334V238.933333c0-10.24 6.826667-17.066667 17.066666-17.066666h136.533334c10.24 0 17.066667 6.826667 17.066666 17.066666v51.2H682.666667c10.24 0 17.066667 6.826667 17.066666 17.066667v51.2H819.2c10.24 0 17.066667 6.826667 17.066667 17.066667v341.333333z m85.333333 221.866667c-10.24 0-17.066667-6.826667-17.066667-17.066667s6.826667-17.066667 17.066667-17.066667 17.066667 6.826667 17.066667 17.066667-6.826667 17.066667-17.066667 17.066667z m0-819.2c-10.24 0-17.066667-6.826667-17.066667-17.066667s6.826667-17.066667 17.066667-17.066667 17.066667 6.826667 17.066667 17.066667-6.826667 17.066667-17.066667 17.066667z" fill="#515151" p-id="2889"></path></svg>