<?xml version="1.0" standalone="no"?><!DOCTYPE svg PUBLIC "-//W3C//DTD SVG 1.1//EN" "http://www.w3.org/Graphics/SVG/1.1/DTD/svg11.dtd"><svg t="1546236891078" class="icon" style="" viewBox="0 0 1024 1024" version="1.1" xmlns="http://www.w3.org/2000/svg" p-id="7451" xmlns:xlink="http://www.w3.org/1999/xlink" width="16" height="16"><defs><style type="text/css"></style></defs><path d="M384 586.656c0 0 203.936-122.368 318.752-74.016 23.808-36.256 47.232-75.328 70.208-115.232C660.64 369.888 512 394.656 512 394.656s190.208-114.112 306.656-78.4c23.36-42.112 46.048-83.648 67.968-122.304C793.856 187.68 704 202.656 704 202.656s119.136-71.488 226.592-83.584C964.384 64.192 995.744 21.184 1024 0 463.008 0 128 640 0 1024l64 0 192-320c0 0 64 64 256 0 45.472-15.168 90.944-57.248 135.584-113.92C534.944 561.504 384 586.656 384 586.656z" p-id="7452" fill="#515151"></path></svg>