<?xml version="1.0" standalone="no"?><!DOCTYPE svg PUBLIC "-//W3C//DTD SVG 1.1//EN" "http://www.w3.org/Graphics/SVG/1.1/DTD/svg11.dtd"><svg t="1545834467508" class="icon" style="" viewBox="0 0 1024 1024" version="1.1" xmlns="http://www.w3.org/2000/svg" p-id="16683" xmlns:xlink="http://www.w3.org/1999/xlink" width="24" height="24"><defs><style type="text/css"></style></defs><path d="M537.700058 171.474863c0 8.190154 77.339932 87.603543 88.432925 94.964314-48.518885 49.348268-97.141443 97.141443-146.593384 146.593384L186.560178 708.914822c-23.015369 23.119041-49.659286 53.287835-73.711384 73.504037-11.507684 9.745246-71.01589 67.179995-72.778327 78.169315 3.628549 17.002344 22.70435 33.589997 33.486324 46.652774 23.844751 28.613701 53.702527 53.287835 80.657463 78.480334 45.823392 42.816879 40.847096 56.294347 91.232092 5.909351l329.783277-332.789789c34.626726-34.523053 73.400365-78.687679 108.960146-111.862985 24.985152-23.43006 53.909872-44.68299 76.614222-70.704871l36.078145-38.980985c8.293827 12.337067 139.750977 138.40323 142.03178 138.40323 16.380307 0 44.994009-25.710862 44.994008-38.980984V283.441521c0-10.98932-88.743944-93.72024-102.428757-107.405053l-33.797343-36.907528C838.973306 130.420422 717.468748 8.086481 703.369243 0c-19.386819 11.196666-59.611878 62.307372-86.048451 82.419901-20.319875 15.550925-31.516541 33.278979-41.158114 41.36546-6.116697 5.079969-4.976296 4.146913-10.781974 9.952592-5.702006 5.702006-4.76895 4.250586-9.952592 10.678301-5.598333 6.842407-17.728054 16.898672-17.728054 27.058609z" p-id="16684" fill="#dbdbdb"></path></svg>