<?xml version="1.0" standalone="no"?><!DOCTYPE svg PUBLIC "-//W3C//DTD SVG 1.1//EN" "http://www.w3.org/Graphics/SVG/1.1/DTD/svg11.dtd"><svg t="1545458501664" class="icon" style="" viewBox="0 0 1026 1024" version="1.1" xmlns="http://www.w3.org/2000/svg" p-id="28096" xmlns:xlink="http://www.w3.org/1999/xlink" width="16.03125" height="16"><defs><style type="text/css"></style></defs><path d="M1011.2 339.2 960 288c-6.4-6.4-19.2-12.8-32-12.8-12.8 0-25.6 6.4-32 12.8l-6.4 6.4c-70.4-44.8-147.2-70.4-230.4-70.4l0 0C608 224 556.8 236.8 512 249.6l89.6-89.6C614.4 166.4 627.2 172.8 640 172.8c25.6 0 44.8-6.4 57.6-25.6 12.8-12.8 25.6-38.4 25.6-57.6 0-25.6-6.4-44.8-25.6-57.6C678.4 6.4 659.2 0 640 0 614.4 0 595.2 6.4 576 25.6 563.2 38.4 550.4 64 550.4 83.2c0 12.8 0 25.6 6.4 38.4L396.8 281.6 396.8 275.2C384 268.8 371.2 262.4 364.8 262.4c-12.8 0-25.6 6.4-32 12.8L275.2 326.4C268.8 339.2 262.4 345.6 262.4 358.4S268.8 384 275.2 390.4l6.4 6.4L121.6 556.8C108.8 556.8 96 550.4 83.2 550.4 64 550.4 44.8 563.2 25.6 576c-32 32-32 89.6 0 121.6 12.8 12.8 38.4 25.6 57.6 25.6 25.6 0 44.8-6.4 57.6-25.6 25.6-25.6 32-64 19.2-96L249.6 512c-19.2 44.8-25.6 96-25.6 147.2 0 83.2 25.6 160 70.4 230.4L288 896c-19.2 19.2-19.2 44.8 0 64l51.2 51.2C345.6 1017.6 358.4 1024 371.2 1024c12.8 0 25.6-6.4 32-12.8L454.4 960c19.2-19.2 19.2-44.8 0-64l-51.2-51.2C390.4 832 384 832 371.2 832c-12.8 0-25.6 6.4-32 12.8l0 0c-76.8-121.6-70.4-275.2 12.8-390.4 6.4 0 12.8 0 19.2 0 12.8 0 25.6-6.4 32-12.8L448 390.4c12.8-12.8 19.2-32 12.8-51.2 115.2-83.2 268.8-83.2 390.4-12.8l0 0c-19.2 19.2-19.2 44.8 0 64L896 454.4c6.4 6.4 19.2 12.8 32 12.8 12.8 0 25.6-6.4 32-12.8l51.2-51.2C1030.4 384 1030.4 358.4 1011.2 339.2zM614.4 64C620.8 57.6 627.2 57.6 640 57.6c6.4 0 12.8 0 19.2 6.4 6.4 6.4 6.4 12.8 6.4 19.2 0 6.4 0 12.8-6.4 19.2-6.4 6.4-12.8 6.4-19.2 6.4-6.4 0-12.8 0-19.2-6.4C614.4 102.4 608 89.6 608 83.2 608 76.8 614.4 70.4 614.4 64zM108.8 659.2c-6.4 6.4-12.8 6.4-19.2 6.4-6.4 0-12.8 0-19.2-6.4-12.8-12.8-12.8-32 0-38.4 6.4-6.4 12.8-6.4 19.2-6.4 6.4 0 12.8 0 19.2 6.4C115.2 627.2 115.2 646.4 108.8 659.2zM371.2 889.6l38.4 38.4L371.2 960l-38.4-38.4L371.2 889.6zM358.4 396.8 326.4 358.4l38.4-38.4 38.4 38.4L358.4 396.8zM928 403.2l-38.4-38.4 38.4-38.4L960 371.2" p-id="28097" fill="#cdcdcd"></path></svg>