<?xml version="1.0" standalone="no"?><!DOCTYPE svg PUBLIC "-//W3C//DTD SVG 1.1//EN" "http://www.w3.org/Graphics/SVG/1.1/DTD/svg11.dtd"><svg t="1545458555413" class="icon" style="" viewBox="0 0 1024 1024" version="1.1" xmlns="http://www.w3.org/2000/svg" p-id="32419" xmlns:xlink="http://www.w3.org/1999/xlink" width="16" height="16"><defs><style type="text/css"></style></defs><path d="M642.005333 480q40.021333-40.021333 40.021333-96 0-70.016-50.005333-120.021333t-120.021333-50.005333-120.021333 50.005333-50.005333 120.021333l84.010667 0q0-34.005333 25.984-59.989333t59.989333-25.984 59.989333 25.984 25.984 59.989333-25.984 59.989333l-52.010667 54.016q-50.005333 54.016-50.005333 120.021333l0 22.016 84.010667 0q0-66.005333 50.005333-120.021333zM553.984 809.984l0-84.010667-84.010667 0 0 84.010667 84.010667 0zM512 86.016q176 0 301.013333 125.013333t125.013333 301.013333-125.013333 301.013333-301.013333 125.013333-301.013333-125.013333-125.013333-301.013333 125.013333-301.013333 301.013333-125.013333z" p-id="32420" fill="#cdcdcd"></path></svg>