<?xml version="1.0" standalone="no"?><!DOCTYPE svg PUBLIC "-//W3C//DTD SVG 1.1//EN" "http://www.w3.org/Graphics/SVG/1.1/DTD/svg11.dtd"><svg t="1547210363483" class="icon" style="" viewBox="0 0 1024 1024" version="1.1" xmlns="http://www.w3.org/2000/svg" p-id="9012" xmlns:xlink="http://www.w3.org/1999/xlink" width="16" height="16"><defs><style type="text/css"></style></defs><path d="M512 0C229.205333 0 0 229.205333 0 512s229.205333 512 512 512 512-229.205333 512-512S794.794667 0 512 0z m240.981333 703.317333c12.629333 12.373333 12.8 32.597333 0.512 45.269334a32.128 32.128 0 0 1-45.312 0.512L512 556.8l-196.181333 192.213333a32 32 0 0 1-45.312-0.512 32 32 0 0 1 0.512-45.312L466.304 512 271.018667 320.682667a32.128 32.128 0 0 1-0.512-45.269334 32.128 32.128 0 0 1 45.312-0.512L512 467.2l196.181333-192.213333a32 32 0 0 1 45.312 0.512 32 32 0 0 1-0.512 45.312L557.696 512l195.285333 191.317333z" fill="#dbdbdb" p-id="9013"></path></svg>