<?xml version="1.0" standalone="no"?><!DOCTYPE svg PUBLIC "-//W3C//DTD SVG 1.1//EN" "http://www.w3.org/Graphics/SVG/1.1/DTD/svg11.dtd"><svg t="1547210398915" class="icon" style="" viewBox="0 0 1024 1024" version="1.1" xmlns="http://www.w3.org/2000/svg" p-id="10038" xmlns:xlink="http://www.w3.org/1999/xlink" width="16" height="16"><defs><style type="text/css"></style></defs><path d="M828.8 195.2C653.856 20.288 370.176 20.256 195.2 195.2 20.256 370.176 20.288 653.824 195.2 828.8c174.976 174.912 458.624 174.944 633.6 0 174.944-174.976 174.912-458.624 0-633.6z m-258.368 511.584a58.432 58.432 0 1 1-116.864 0v-233.728a58.432 58.432 0 1 1 116.864 0v233.728z m-59.488-333.632c-33.632 0-56.096-23.84-55.36-53.248-0.736-30.88 21.728-53.984 56.064-53.984s56.096 23.136 56.8 53.984c0 29.44-22.432 53.248-57.504 53.248z" p-id="10039" fill="#dbdbdb"></path></svg>