<?xml version="1.0" standalone="no"?><!DOCTYPE svg PUBLIC "-//W3C//DTD SVG 1.1//EN" "http://www.w3.org/Graphics/SVG/1.1/DTD/svg11.dtd"><svg t="1547210009196" class="icon" style="" viewBox="0 0 1024 1024" version="1.1" xmlns="http://www.w3.org/2000/svg" p-id="6894" xmlns:xlink="http://www.w3.org/1999/xlink" width="16" height="16"><defs><style type="text/css"></style></defs><path d="M1024 855.04c0-15.36-5.12-25.6-15.36-35.84l-122.88-102.4c-10.24-10.24-25.6-25.6-35.84-30.72l-276.48-266.24 15.36-15.36c5.12-5.12 5.12-10.24 5.12-20.48s-5.12-15.36-5.12-20.48l-25.6-15.36C819.2 112.64 957.44 51.2 957.44 51.2c10.24-5.12 15.36-15.36 15.36-30.72s-10.24-20.48-25.6-20.48c-107.52 0-209.92 15.36-307.2 51.2-87.04 30.72-168.96 71.68-245.76 128l-15.36-15.36c-10.24-10.24-30.72-10.24-35.84 0l-20.48 15.36-30.72-25.6c-20.48-20.48-51.2-20.48-71.68 0L153.6 220.16c-20.48 20.48-20.48 51.2 0 71.68l25.6 30.72-15.36 20.48c-10.24 10.24-10.24 25.6 0 35.84l15.36 15.36C122.88 471.04 81.92 552.96 51.2 640c-35.84 97.28-51.2 199.68-51.2 307.2 0 15.36 10.24 25.6 20.48 25.6h5.12c10.24 0 20.48-5.12 25.6-15.36 0 0 61.44-138.24 296.96-394.24l20.48 20.48c5.12 5.12 10.24 5.12 20.48 5.12s15.36-5.12 20.48-5.12l15.36-15.36 266.24 276.48c10.24 10.24 25.6 25.6 30.72 35.84l102.4 122.88c10.24 10.24 20.48 15.36 35.84 15.36 15.36 0 25.6-5.12 35.84-15.36l117.76-117.76c5.12-5.12 10.24-15.36 10.24-30.72z" p-id="6895" fill="#dbdbdb"></path></svg>