<?xml version="1.0" standalone="no"?><!DOCTYPE svg PUBLIC "-//W3C//DTD SVG 1.1//EN" "http://www.w3.org/Graphics/SVG/1.1/DTD/svg11.dtd"><svg t="1547209626985" class="icon" style="" viewBox="0 0 1024 1024" version="1.1" xmlns="http://www.w3.org/2000/svg" p-id="6006" xmlns:xlink="http://www.w3.org/1999/xlink" width="16" height="16"><defs><style type="text/css"></style></defs><path d="M884.3264 133.888h-100.352V298.496H238.1824V133.888H139.6736A37.2736 37.2736 0 0 0 102.4 171.1616v764.9792c0 20.5824 16.6912 37.2736 37.2736 37.2736h744.6528a37.2736 37.2736 0 0 0 37.2736-37.2736V171.2128a37.2736 37.2736 0 0 0-37.2736-37.3248zM801.5872 453.12l-323.0208 395.4688c1.536 4.9152-5.7856 5.632-10.752 1.6384l-235.008-192.4608a11.5712 11.5712 0 0 1-1.5872-16.1792l39.2192-48.0256a11.5712 11.5712 0 0 1 16.1792-1.6384l178.3296 147.6096 276.2752-338.2784c3.9936-6.8096 11.264-7.5776 16.2304-3.584l45.568 37.2224c4.864 4.0448 7.68 7.7824-1.4336 18.2272z m-149.76-367.104v-30.2592C651.776 24.9344 626.8928 0 596.1216 0H427.5712c-30.72 0-55.6544 24.9344-55.6544 55.7056v30.208H306.432V236.032h409.6V85.9136H651.776zM512.1536 180.736a61.44 61.44 0 1 1 61.44-61.44c0 38.912-27.5456 61.44-61.44 61.44z" fill="#dbdbdb" p-id="6007"></path></svg>