<?xml version="1.0" standalone="no"?><!DOCTYPE svg PUBLIC "-//W3C//DTD SVG 1.1//EN" "http://www.w3.org/Graphics/SVG/1.1/DTD/svg11.dtd"><svg t="1547210350601" class="icon" style="" viewBox="0 0 1024 1024" version="1.1" xmlns="http://www.w3.org/2000/svg" p-id="8140" xmlns:xlink="http://www.w3.org/1999/xlink" width="16" height="16"><defs><style type="text/css"></style></defs><path d="M512 0a512 512 0 1 0 0 1024A512 512 0 0 0 512 0z m78.336 756.736c0 7.04-2.432 14.08-7.232 19.392a23.36 23.36 0 0 1-17.344 8.064H480.64a23.168 23.168 0 0 1-17.408-8.064 29.12 29.12 0 0 1-7.232-19.392v-45.76c0-7.04 2.432-14.08 7.232-19.456a23.168 23.168 0 0 1 17.344-8.064h85.12c6.336 0 12.608 2.688 17.408 8.064a29.184 29.184 0 0 1 7.232 19.456v45.76z m-7.232-150.208a29.056 29.056 0 0 1-17.344 5.376l-84.672-0.256a29.12 29.12 0 0 1-17.28-5.44 16.384 16.384 0 0 1-7.168-12.928l-0.576-129.28V260.992c0-4.672 2.432-9.408 7.168-12.992a29.184 29.184 0 0 1 17.344-5.376h85.12c6.272 0 12.544 1.792 17.28 5.376 4.864 3.584 7.232 8.32 7.232 12.992v201.536l0.192 131.008a16.256 16.256 0 0 1-7.296 12.992z" fill="#dbdbdb" p-id="8141"></path></svg>