<?xml version="1.0" standalone="no"?><!DOCTYPE svg PUBLIC "-//W3C//DTD SVG 1.1//EN" "http://www.w3.org/Graphics/SVG/1.1/DTD/svg11.dtd"><svg t="1545456751353" class="icon" style="" viewBox="0 0 1024 1024" version="1.1" xmlns="http://www.w3.org/2000/svg" p-id="15311" xmlns:xlink="http://www.w3.org/1999/xlink" width="18" height="18"><defs><style type="text/css"></style></defs><path d="M579.05 890.2l-44.4 44.4c-18.8 18.8-49.2 18.8-67.8 0L78.05 546c-18.8-18.8-18.8-49.2 0-67.8L466.85 89.4c18.8-18.8 49.2-18.8 67.8 0l44.4 44.4c19 19 18.6 50-0.8 68.6L337.25 432H912.05c26.6 0 48 21.4 48 48v64c0 26.6-21.4 48-48 48H337.25l241 229.6c19.6 18.6 20 49.6 0.8 68.6z" fill="#dbdbdb" p-id="15312"></path></svg>