<?xml version="1.0" standalone="no"?><!DOCTYPE svg PUBLIC "-//W3C//DTD SVG 1.1//EN" "http://www.w3.org/Graphics/SVG/1.1/DTD/svg11.dtd"><svg t="1545535533621" class="icon" style="" viewBox="0 0 1024 1024" version="1.1" xmlns="http://www.w3.org/2000/svg" p-id="8784" xmlns:xlink="http://www.w3.org/1999/xlink" width="24" height="24"><defs><style type="text/css"></style></defs><path d="M106.852174 73.46087C35.617391 73.46087 0 108.707617 0 179.2v666.713043c0 69.749983 35.617391 104.626087 106.852174 104.626087h810.295652c70.493496 0 106.110887-34.876104 106.852174-104.626087V179.2c-0.741287-70.492383-36.358678-105.73913-106.852174-105.73913H106.852174z m843.686956 349.495652v415.165217c0 17.808696-2.039096 28.752139-6.121739 32.834783-4.080417 4.080417-14.65433 6.121739-31.721739 6.121739-89.043478 0.741287-222.978226 1.113043-401.808695 1.113043H109.078261c-8.161948 0-14.469565-0.371757-18.921739-1.113043-4.452174-0.743513-8.533704-3.33913-12.243479-7.791304s-5.565217-11.130435-5.565217-20.034783c0.7424-8.163061 1.113043-145.436939 1.113044-411.824974 0-0.7424 0.7424-5.56633 2.226087-14.470678h874.852173zM73.46087 171.409809c0-16.325009 8.533704-24.486957 25.6-24.486957h809.182608c20.778296 0 33.021774 1.855443 36.730435 5.565218 3.710887 3.709774 5.565217 15.953252 5.565217 36.730434v145.808696l-2.226087 7.791304H73.46087v-171.408695zM263.791304 676.730435c40.811965-17.808696 62.330435-27.082574 64.556522-27.826087 20.777183-9.645635 27.455443-24.1152 20.034783-43.407583-8.161948-19.292383-23.002157-24.8576-44.520626-16.695652-55.652174 21.51847-99.431513 39.697809-131.339131 54.538017-5.194574 2.226087-9.832626 6.678261-13.914156 13.356522s-6.493496 12.613009-7.235896 17.808696c0 4.452174 2.226087 9.645635 6.678261 15.582609 4.452174 5.934748 8.904348 10.386922 13.356522 13.356521 13.356522 6.678261 56.765217 26.713043 130.226087 60.104348 20.034783 8.904348 34.504348 3.708661 43.408695-15.582609 8.161948-17.067409 2.59673-30.42393-16.695652-40.069565L263.791304 676.730435z m515.339131-2.226087c-5.195687 2.967374-12.986991 6.678261-23.373913 11.130435-10.389148 4.452174-18.921739 8.347826-25.6 11.686956s-12.986991 6.863026-18.921739 10.573913c-4.452174 3.708661-8.163061 9.8304-11.130435 18.365218-2.9696 8.532591-3.33913 15.026087-1.113044 19.47826 2.226087 5.193461 7.604313 9.645635 16.139131 13.356522 8.532591 3.708661 15.397843 4.821704 20.591304 3.339131 47.491339-18.552209 93.867409-40.069565 139.132661-64.556522 12.613009-5.936974 18.734748-14.841322 18.365217-26.713044-0.371757-11.873948-6.863026-20.406539-19.47826-25.601113-30.421704-14.098922-76.056487-33.391304-136.904348-57.878261-20.77607-8.161948-34.876104-1.85433-42.295652 18.922853-6.678261 18.551096-0.371757 32.278261 18.921739 41.182608 2.226087 0.741287 24.112974 9.645635 65.667339 26.713044zM579.341357 532.590191c-3.33913-4.08153-6.678261-7.420661-10.018505-10.017391-3.33913-2.59673-6.492383-4.636939-9.460869-6.120626-18.551096-5.935861-31.536974 2.597843-38.957635 25.601113-2.226087 5.194574-11.316313 32.464139-27.269565 81.808696L457.46087 735.721739c-8.904348 27.456557-3.33913 44.521739 16.695652 51.2s34.504348-3.708661 43.408695-31.165217l29.495653-89.6 33.947826-101.842365c0-0.7424 1.856557-8.905461 5.567443-24.48807-1.4848-0.7424-3.895652-3.154365-7.234782-7.235896zM211.478261 289.392417c12.614122 0 23.373913-4.266296 32.278261-12.8s13.356522-19.107617 13.356521-31.721739c0.7424-12.614122-3.523896-23.558678-12.798886-32.833669s-19.848904-14.283687-31.72174-15.026087c-11.872835 0-22.26087 4.452174-31.165217 13.356521s-13.727165 19.292383-14.469565 31.165218v2.226087c0 11.872835 4.452174 22.26087 13.356522 31.165217s19.29127 13.726052 31.164104 14.468452z m132.453287 0.001113c11.872835 0 22.076104-4.266296 30.609809-12.8s13.171757-18.736974 13.914156-30.609808c0.7424-12.614122-3.153252-23.744557-11.686956-33.391305s-19.107617-14.841322-31.72174-15.583721c-11.872835 0-22.446748 4.266296-31.721739 12.8s-14.283687 18.736974-15.026087 30.609808v3.339131c0 11.872835 4.266296 22.26087 12.8 31.165217s19.105391 13.728278 31.719513 14.470678h1.113044z m163.619617-77.914156c-8.904348-9.646748-19.664139-14.469565-32.278261-14.469565-11.872835 0.7424-22.26087 5.380452-31.165217 13.914156s-13.727165 18.736974-14.469565 30.609809v2.226087c0 12.614122 4.452174 23.188035 13.356521 31.721739s19.664139 13.171757 32.278261 13.914157c11.872835 0 22.26087-4.452174 31.165218-13.356522s13.727165-19.295722 14.469565-31.168557c0-12.614122-4.452174-23.744557-13.356522-33.391304z" p-id="8785" fill="#2c2c2c"></path></svg>