<?xml version="1.0" standalone="no"?><!DOCTYPE svg PUBLIC "-//W3C//DTD SVG 1.1//EN" "http://www.w3.org/Graphics/SVG/1.1/DTD/svg11.dtd"><svg t="1545535573296" class="icon" style="" viewBox="0 0 1024 1024" version="1.1" xmlns="http://www.w3.org/2000/svg" p-id="11416" xmlns:xlink="http://www.w3.org/1999/xlink" width="24" height="24"><defs><style type="text/css"></style></defs><path d="M144 96h304c27.2 0 48 20.8 48 48v304c0 27.2-20.8 48-48 48H144c-27.2 0-48-20.8-48-48V144c0-27.2 20.8-48 48-48z m0 432h304c27.2 0 48 20.8 48 48v304c0 27.2-20.8 48-48 48H144c-27.2 0-48-20.8-48-48V576c0-27.2 20.8-48 48-48zM576 96h304c27.2 0 48 20.8 48 48v304c0 27.2-20.8 48-48 48H576c-27.2 0-48-20.8-48-48V144c0-27.2 20.8-48 48-48z m0 48v304h304V144H576z m0 384h304c27.2 0 48 20.8 48 48v304c0 27.2-20.8 48-48 48H576c-27.2 0-48-20.8-48-48V576c0-27.2 20.8-48 48-48z" fill="#2c2c2c" p-id="11417"></path></svg>