<?xml version="1.0" standalone="no"?><!DOCTYPE svg PUBLIC "-//W3C//DTD SVG 1.1//EN" "http://www.w3.org/Graphics/SVG/1.1/DTD/svg11.dtd"><svg t="1545475936570" class="icon" style="" viewBox="0 0 1024 1024" version="1.1" xmlns="http://www.w3.org/2000/svg" p-id="22006" xmlns:xlink="http://www.w3.org/1999/xlink" width="16" height="16"><defs><style type="text/css"></style></defs><path d="M816.64 320A122.026667 122.026667 0 0 1 938.666667 442.026667v161.28A122.026667 122.026667 0 0 1 816.64 725.333333H512c0 16.64 13.653333 40.96 30.293333 40.96H725.333333v71.68a122.026667 122.026667 0 0 1-122.026666 122.026667H420.693333A122.026667 122.026667 0 0 1 298.666667 837.973333v-160a121.6 121.6 0 0 1 122.026666-121.6h224a121.6 121.6 0 0 0 121.6-122.026666V320h50.346667m-182.613333 503.04c-17.066667 0-30.72 12.8-30.72 37.973333 0 25.173333 13.653333 30.293333 30.72 30.293334a30.293333 30.293333 0 0 0 30.293333-30.293334c0-25.173333-13.653333-37.973333-30.293333-37.973333m-426.666667-76.373333A122.026667 122.026667 0 0 1 85.333333 624.64v-161.28A122.026667 122.026667 0 0 1 207.36 341.333333H512c0-16.64-13.653333-40.96-30.293333-40.96H298.666667V228.693333A122.026667 122.026667 0 0 1 420.693333 106.666667h182.613334A122.026667 122.026667 0 0 1 725.333333 228.693333v160a121.6 121.6 0 0 1-122.026666 121.6H379.306667a121.6 121.6 0 0 0-121.6 122.026667v114.346667H207.36M389.973333 243.626667c17.066667 0 30.72-12.8 30.72-37.973334 0-25.173333-13.653333-30.293333-30.72-30.293333-16.64 0-30.293333 5.12-30.293333 30.293333s13.653333 37.973333 30.293333 37.973334z" fill="#3f51b5" p-id="22007"></path></svg>