<?xml version="1.0" standalone="no"?><!DOCTYPE svg PUBLIC "-//W3C//DTD SVG 1.1//EN" "http://www.w3.org/Graphics/SVG/1.1/DTD/svg11.dtd"><svg t="1545478860757" class="icon" style="" viewBox="0 0 1024 1024" version="1.1" xmlns="http://www.w3.org/2000/svg" p-id="36339" xmlns:xlink="http://www.w3.org/1999/xlink" width="16" height="16"><defs><style type="text/css"></style></defs><path d="M1010.12671 315.974059L767.974671 558.126098c-15.35848 16.894328-41.467897 17.918227-58.362225 2.559747l-2.559746-2.559747-242.15204-242.152039c-16.894328-15.35848-17.918227-41.467897-2.559746-58.362225 0.511949-1.023899 1.535848-1.535848 2.559746-2.559747l242.15204-241.640089c15.35848-16.894328 41.467897-17.918227 58.362225-2.559747l2.559746 2.559747L1010.12671 256.075986c16.382379 15.87043 17.406278 41.979846 1.535848 58.362225l-1.535848 1.535848z" p-id="36340" fill="#795548"></path><path d="M386.572411 1022.976101H42.030503c-23.03772 0-41.467897-18.430176-41.467896-41.467896v-344.029959c0-23.03772 18.430176-41.467897 41.467896-41.467896h342.494111c23.03772 0 41.467897 18.430176 41.467896 41.467896v343.00606c0 23.03772-18.430176 41.467897-41.467896 41.467897l2.047797 1.023898z m0-513.99714H42.030503c-23.03772 0-41.467897-18.430176-41.467896-41.467896V123.993056c0-23.03772 18.430176-41.467897 41.467896-41.467897h342.494111c23.03772 0 41.467897 18.430176 41.467896 41.467897v342.49411c0 23.03772-18.430176 41.467897-41.467896 41.467897l2.047797 1.023898z m170.99108 86.00749h342.494111c23.03772 0 41.467897 18.430176 41.467896 41.467897v343.006059c0 23.03772-18.430176 41.467897-41.467896 41.467897h-342.494111c-23.03772 0-41.467897-18.430176-41.467896-41.467897v-341.982161c0-23.03772 18.430176-41.467897 41.467896-41.467896v-1.023899z" p-id="36341" fill="#795548"></path></svg>