<svg id="307fa327-2f00-42a8-b324-2126a4c4c4e5" data-name="图层 1" xmlns="http://www.w3.org/2000/svg" viewBox="0 0 934.42888 764.79582"><title>MinecodeIcon</title><path d="M175.04848,0h702.6946A25.00693,25.00693,0,0,1,902.75,25.00693V457.62673A175.04848,175.04848,0,0,1,727.70152,632.67521H25.00693A25.00693,25.00693,0,0,1,0,607.66828V175.04848A175.04848,175.04848,0,0,1,175.04848,0Z" style="fill:#60514b"/><path d="M542.75293,685.00879H499.87109L493.3623,558.1416c-1.915-40.97559-4.21191-87.46729-3.8291-124.89648h-1.14844c-8.80664,35.45947-20.292,74.07178-32.54395,112.28906L412.19238,682.251H378.88281L338.68115,548.292c-11.86914-39.3999-22.20654-78.79932-29.48145-115.04687h-1.14844c-.76562,37.4292-3.063,85.10254-5.36035,127.26074l-6.50879,124.50293H254.832l19.90918-301.80127H329.875l41.35059,132.77686c10.72021,37.03516,19.52637,70.52539,26.80078,103.62109h1.14844c7.27441-32.30762,16.46387-66.58594,27.9502-104.01562l42.499-132.38232h55.5166Z" transform="translate(-64 -204.32479)" style="fill:#fff"/><path d="M785.49316,676.73438c-12.252,6.30469-37.13867,12.6084-68.917,12.6084-81.55273,0-136.30371-55.55371-136.30371-151.68848,0-102.43945,62.792-158.38672,143.96094-158.38672,33.69238,0,54.36816,7.48584,62.4082,11.81982l-9.57129,37.42969c-12.252-5.91016-29.48145-11.03174-51.30566-11.03174-56.665,0-98.78125,39.39941-98.78125,117.80469,0,74.07129,37.52148,115.44141,98.01563,115.44141,19.90918,0,40.20215-4.334,52.83691-10.63867Z" transform="translate(-64 -204.32479)" style="fill:#fff"/><rect x="838.76351" y="708.40073" width="160.60949" height="56.30829" rx="12.83359" ry="12.83359" transform="translate(726.01181 -638.47226) rotate(45)" style="fill:#e0dad8;stroke:#af968b;stroke-miterlimit:10;stroke-width:16px"/><polygon points="782.221 502.772 881.897 603.386 835.381 698.543 670.546 755.675 652.21 738.883 756.438 637.164 749.875 629.569 645.454 733.092 628.083 716.107 683.092 546.254 782.221 502.772" style="fill:#e0dad8;stroke:#af968b;stroke-miterlimit:10;stroke-width:16px"/><circle cx="747.79487" cy="636.04887" r="23.04073" style="fill:#9b837a"/><polygon points="757.838 647.47 662.181 738.211 646.586 723.889 740.787 628.92 757.838 647.47" style="fill:#9b837a"/></svg>