<svg id="b1a4d73b-ba8d-4045-9dce-0b85af6dccbd" data-name="图层 1" xmlns="http://www.w3.org/2000/svg" xmlns:xlink="http://www.w3.org/1999/xlink" viewBox="0 0 942.52084 739.63654"><defs><linearGradient id="e79d6bd2-6fd2-4331-b9f0-c1cfa6fa2c3b" x1="713.39733" y1="742.48067" x2="1006.52084" y2="742.48067" gradientUnits="userSpaceOnUse"><stop offset="0" stop-color="#795548"/><stop offset="1" stop-color="#a1887f"/></linearGradient></defs><title>MinecodeHelperIcon</title><path d="M175.04848,0h702.6946A25.00693,25.00693,0,0,1,902.75,25.00693V457.62673A175.04848,175.04848,0,0,1,727.70152,632.67521H25.00693A25.00693,25.00693,0,0,1,0,607.66828V175.04848A175.04848,175.04848,0,0,1,175.04848,0Z" style="fill:#60514b"/><path d="M542.75293,685.00879H499.87109L493.3623,558.1416c-1.915-40.97559-4.21191-87.46729-3.8291-124.89648h-1.14844c-8.80664,35.45947-20.292,74.07178-32.54395,112.28906L412.19238,682.251H378.88281L338.68115,548.292c-11.86914-39.3999-22.20654-78.79932-29.48145-115.04687h-1.14844c-.76562,37.4292-3.063,85.10254-5.36035,127.26074l-6.50879,124.50293H254.832l19.90918-301.80127H329.875l41.35059,132.77686c10.72021,37.03516,19.52637,70.52539,26.80078,103.62109h1.14844c7.27441-32.30762,16.46387-66.58594,27.9502-104.01562l42.499-132.38232h55.5166Z" transform="translate(-64 -204.32479)" style="fill:#fff"/><path d="M785.49316,676.73438c-12.252,6.30469-37.13867,12.6084-68.917,12.6084-81.55273,0-136.30371-55.55371-136.30371-151.68848,0-102.43945,62.792-158.38672,143.96094-158.38672,33.69238,0,54.36816,7.48584,62.4082,11.81982l-9.57129,37.42969c-12.252-5.91016-29.48145-11.03174-51.30566-11.03174-56.665,0-98.78125,39.39941-98.78125,117.80469,0,74.07129,37.52148,115.44141,98.01563,115.44141,19.90918,0,40.20215-4.334,52.83691-10.63867Z" transform="translate(-64 -204.32479)" style="fill:#fff"/><g style="opacity:0.9500000000000001"><path d="M718.92247,880.06024c11.951-23.28567,37.32226-32.29745,59.28252-21.1898,21.46183,10.85632,29.5305,36.7809,17.57838,60.06657-11.95212,23.28791-37.31435,31.05429-58.775,20.198C715.04807,928.02733,706.96922,903.34816,718.92247,880.06024ZM935.704,672.051c13.98765-27.25076,7.19953-56.89584-24.24444-72.80109-23.45667-11.86387-50.02259-10.32226-75.90247-.32313L818.12,553.28671c38.69662-15.37568,82.30858-18.27937,123.73243,2.67257,57.89573,29.286,81.5389,82.43221,51.78574,140.40067-37.129,72.33884-139.70023,54.1582-169.10754,132.273l-50.40913-25.49822C804.867,713.83822,907.98638,726.05439,935.704,672.051Z" transform="translate(-64 -204.32479)" style="fill:url(#e79d6bd2-6fd2-4331-b9f0-c1cfa6fa2c3b)"/></g></svg>